/* XPM */
static char * bottom_left_active_xpm[] = {
"2 4 2 1",
" 	c #090909",
".	c #2A2A2A",
" .",
" .",
"  ",
"  "};
