/* XPM */
static char * maximize_pressed_xpm[] = {
"20 24 7 1",
" 	c None",
".	c #090909",
"+	c #5C5C5C",
"@	c #242424",
"#	c #3CABEA",
"$	c #336F91",
"%	c #3E85AE",
"....................",
"++++++++++++++++++++",
"@@@@@@@@@@@@@@@@@@@@",
"@@@@@@@@@@@@@@@@@@@@",
"@@@@@@@@@@@@@@@@@@@@",
"@@@@@@@@@@@@@@@@@@@@",
"@@@@@@@@@@@@@@@@@@@@",
"@@@@@####$@@@@@@@@@@",
"@@@@@###$@@@@@@@@@@@",
"@@@@@###%@@@@@@@@@@@",
"@@@@@#$%#%@@@@@@@@@@",
"@@@@@$@@%@@@@@@@@@@@",
"@@@@@@@@@@@%@@$@@@@@",
"@@@@@@@@@@%#%$#@@@@@",
"@@@@@@@@@@@%###@@@@@",
"@@@@@@@@@@@$###@@@@@",
"@@@@@@@@@@$####@@@@@",
"@@@@@@@@@@@@@@@@@@@@",
"@@@@@@@@@@@@@@@@@@@@",
"@@@@@@@@@@@@@@@@@@@@",
"@@@@@@@@@@@@@@@@@@@@",
"@@@@@@@@@@@@@@@@@@@@",
"@@@@@@@@@@@@@@@@@@@@",
"@@@@@@@@@@@@@@@@@@@@"};
