/* XPM */
static char * maximize_inactive_xpm[] = {
"20 24 14 1",
" 	c None",
".	c #090909",
"+	c #5C5C5C",
"@	c #242424",
"#	c #AAAAAA",
"$	c #979693",
"%	c #989896",
"&	c #A8A8A8",
"*	c #989796",
"=	c #8C8C8B",
"-	c #969592",
";	c #9D9C9A",
">	c #8D8C8C",
",	c #93928F",
"....................",
"++++++++++++++++++++",
"@@@@@@@@@@@@@@@@@@@@",
"@@@@@@@@@@@@@@@@@@@@",
"@@@@@@@@@@@@@@@@@@@@",
"@@@@@@@@@@@@@@@@@@@@",
"@@@@@@@@@@@@@@@@@@@@",
"@@@@@####$@@@@@@@@@@",
"@@@@@###%@@@@@@@@@@@",
"@@@@@###&@@@@@@@@@@@",
"@@@@@#*&#&@@@@@@@@@@",
"@@@@@=@@&@@@@@@@@@@@",
"@@@@@@@@@@@&@@-@@@@@",
"@@@@@@@@@@&#&;#@@@@@",
"@@@@@@@@@@@&###@@@@@",
"@@@@@@@@@@@>###@@@@@",
"@@@@@@@@@@,####@@@@@",
"@@@@@@@@@@@@@@@@@@@@",
"@@@@@@@@@@@@@@@@@@@@",
"@@@@@@@@@@@@@@@@@@@@",
"@@@@@@@@@@@@@@@@@@@@",
"@@@@@@@@@@@@@@@@@@@@",
"@@@@@@@@@@@@@@@@@@@@",
"@@@@@@@@@@@@@@@@@@@@"};
