/* XPM */
static char * maximize_toggled_prelight_xpm[] = {
"20 24 7 1",
" 	c None",
".	c #090909",
"+	c #5C5C5C",
"@	c #242424",
"#	c #709CB5",
"$	c #5384A0",
"%	c #8FC1DE",
"....................",
"++++++++++++++++++++",
"@@@@@@@@@@@@@@@@@@@@",
"@@@@@@@@@@@@@@@@@@@@",
"@@@@@@@@@@@@@@@@@@@@",
"@@@@@@@@@@@@@@@@@@@@",
"@@@@@@@@@@@@@@@@@@@@",
"@@@@@@#@@$@@@@@@@@@@",
"@@@@@#%#$%@@@@@@@@@@",
"@@@@@@#%%%@@@@@@@@@@",
"@@@@@@$%%%@@@@@@@@@@",
"@@@@@$%%%%@@@@@@@@@@",
"@@@@@@@@@@%%%%$@@@@@",
"@@@@@@@@@@%%%$@@@@@@",
"@@@@@@@@@@%%%#@@@@@@",
"@@@@@@@@@@%$#%#@@@@@",
"@@@@@@@@@@$@@#@@@@@@",
"@@@@@@@@@@@@@@@@@@@@",
"@@@@@@@@@@@@@@@@@@@@",
"@@@@@@@@@@@@@@@@@@@@",
"@@@@@@@@@@@@@@@@@@@@",
"@@@@@@@@@@@@@@@@@@@@",
"@@@@@@@@@@@@@@@@@@@@",
"@@@@@@@@@@@@@@@@@@@@"};
