/* XPM */
static char * maximize_toggled_active_xpm[] = {
"20 24 21 1",
" 	c None",
".	c #090909",
"+	c #5C5C5C",
"@	c #242424",
"#	c #C8C7C6",
"$	c #969592",
"%	c #C6C6C4",
"&	c #FFFFFF",
"*	c #D7D7D6",
"=	c #9D9C9A",
"-	c #D0D0D0",
";	c #8D8C8C",
">	c #93928F",
",	c #979693",
"'	c #989896",
")	c #DCDCDC",
"!	c #989796",
"~	c #DBDBDA",
"{	c #C9C9C8",
"]	c #8C8C8B",
"^	c #C5C5C4",
"....................",
"++++++++++++++++++++",
"@@@@@@@@@@@@@@@@@@@@",
"@@@@@@@@@@@@@@@@@@@@",
"@@@@@@@@@@@@@@@@@@@@",
"@@@@@@@@@@@@@@@@@@@@",
"@@@@@@@@@@@@@@@@@@@@",
"@@@@@@#@@$@@@@@@@@@@",
"@@@@@%&*=&@@@@@@@@@@",
"@@@@@@-&&&@@@@@@@@@@",
"@@@@@@;&&&@@@@@@@@@@",
"@@@@@>&&&&@@@@@@@@@@",
"@@@@@@@@@@&&&&,@@@@@",
"@@@@@@@@@@&&&'@@@@@@",
"@@@@@@@@@@&&&)@@@@@@",
"@@@@@@@@@@&!~&{@@@@@",
"@@@@@@@@@@]@@^@@@@@@",
"@@@@@@@@@@@@@@@@@@@@",
"@@@@@@@@@@@@@@@@@@@@",
"@@@@@@@@@@@@@@@@@@@@",
"@@@@@@@@@@@@@@@@@@@@",
"@@@@@@@@@@@@@@@@@@@@",
"@@@@@@@@@@@@@@@@@@@@",
"@@@@@@@@@@@@@@@@@@@@"};
