<?xml version="1.0" encoding="UTF-8"?>
<svg version="1.1" viewBox="0 0 16 16" xmlns="http://www.w3.org/2000/svg" xmlns:cc="http://creativecommons.org/ns#" xmlns:dc="http://purl.org/dc/elements/1.1/" xmlns:rdf="http://www.w3.org/1999/02/22-rdf-syntax-ns#">
 <defs>
  <linearGradient id="a" x1="8" x2="8" y1="2" y2="14" gradientUnits="userSpaceOnUse">
   <stop stop-color="#fff" stop-opacity=".02" offset="0"/>
   <stop stop-color="#fff" stop-opacity="0" offset=".69"/>
   <stop stop-opacity="0" offset=".7"/>
   <stop stop-opacity=".05" offset="1"/>
  </linearGradient>
 </defs>
 <metadata>
  <rdf:RDF>
   <cc:Work rdf:about="">
    <dc:format>image/svg+xml</dc:format>
    <dc:type rdf:resource="http://purl.org/dc/dcmitype/StillImage"/>
    <dc:title/>
   </cc:Work>
  </rdf:RDF>
 </metadata>
 <rect x="1" y="1" width="14" height="14" ry="2" fill="#ececec" opacity="0"/>
 <path d="m3 1c-1.108 0-2 0.892-2 2v10c0 1.108 0.892 2 2 2h10c1.108 0 2-0.892 2-2v-10c0-1.108-0.892-2-2-2h-10zm0 1h10c0.5713 0 1 0.4287 1 1v10c0 0.5713-0.4287 1-1 1h-10c-0.5713 0-1-0.4287-1-1v-10c0-0.5713 0.4287-1 1-1z" opacity=".35"/>
 <path d="m3 2c-0.5713 0-1 0.4287-1 1v1c0-0.5713 0.4287-1 1-1h10c0.5713 0 1 0.4287 1 1v-1c0-0.5713-0.4287-1-1-1z" fill="#fff" opacity=".02"/>
 <path d="m1 13v1c0 1.108 0.892 2 2 2h10c1.108 0 2-0.892 2-2v-1c0 1.108-0.892 2-2 2h-10c-1.108 0-2-0.892-2-2z" opacity=".09"/>
 <rect x="2" y="2" width="12" height="12" ry=".9" fill="url(#a)"/>
</svg>
