<?xml version="1.0" encoding="UTF-8"?>
<svg width="18" height="21" version="1.1" viewBox="0 0 4.7625 5.5563" xmlns="http://www.w3.org/2000/svg" xmlns:cc="http://creativecommons.org/ns#" xmlns:dc="http://purl.org/dc/elements/1.1/" xmlns:rdf="http://www.w3.org/1999/02/22-rdf-syntax-ns#">
 <defs>
  <linearGradient id="a" x1="7" x2="7" y1="2" y2="20" gradientTransform="matrix(.26458 0 0 .26458 -.79323 -.26458)" gradientUnits="userSpaceOnUse">
   <stop stop-color="#fff" stop-opacity=".02" offset="0"/>
   <stop stop-color="#fff" stop-opacity="0" offset=".69"/>
   <stop stop-opacity="0" offset=".7"/>
   <stop stop-opacity=".05" offset="1"/>
  </linearGradient>
 </defs>
 <metadata>
  <rdf:RDF>
   <cc:Work rdf:about="">
    <dc:format>image/svg+xml</dc:format>
    <dc:type rdf:resource="http://purl.org/dc/dcmitype/StillImage"/>
    <dc:title/>
   </cc:Work>
  </rdf:RDF>
 </metadata>
 <path d="m-1.8456e-8 -1.1133e-8v0.2651h4.2344c0.15088 0 0.26355 0.11319 0.26355 0.26407v4.2344c0 0.15088-0.11267 0.26355-0.26355 0.26355h-4.2344v0.26458c1.7518e-4 3e-7 3.4131e-4 0 5.1594e-4 0h4.2333c0.29316 0 0.52917-0.23601 0.52917-0.52917v-4.2333c0-0.29316-0.23601-0.52917-0.52917-0.52917h-4.2333c-1.7521e-4 0-3.4158e-4 -1.6859e-7 -5.1676e-4 0z" opacity=".35"/>
 <path d="m-1.8456e-8 0.2651v4.762h4.2344c0.15088 0 0.26355-0.11267 0.26355-0.26355v-4.2344c0-0.15088-0.11267-0.26407-0.26355-0.26407z" fill="url(#a)"/>
 <path d="m-1.8456e-8 0.2651v0.26458h4.2344c0.15088 0 0.26355 0.11319 0.26355 0.26407v-0.26458c0-0.15088-0.11267-0.26407-0.26355-0.26407z" fill="#fff" opacity=".02"/>
 <path d="m4.763 4.7625c0 0.29281-0.23546 0.5286-0.52813 0.52917h-4.2344c-1.7529e-4 0-3.4396e-4 -3e-7 -5.1594e-4 0v0.26458c1.7518e-4 3e-7 3.4131e-4 0 5.1594e-4 0h4.2333c0.29316 0 0.52917-0.23601 0.52917-0.52917z" opacity=".1"/>
 <rect y=".26458" width=".26458" height="4.7625" opacity=".35"/>
</svg>
