<?xml version="1.0" encoding="UTF-8"?>
<svg width="18" height="21" version="1.1" viewBox="0 0 4.7625 5.5563" xmlns="http://www.w3.org/2000/svg" xmlns:cc="http://creativecommons.org/ns#" xmlns:dc="http://purl.org/dc/elements/1.1/" xmlns:rdf="http://www.w3.org/1999/02/22-rdf-syntax-ns#">
 <metadata>
  <rdf:RDF>
   <cc:Work rdf:about="">
    <dc:format>image/svg+xml</dc:format>
    <dc:type rdf:resource="http://purl.org/dc/dcmitype/StillImage"/>
    <dc:title/>
   </cc:Work>
  </rdf:RDF>
 </metadata>
 <defs>
  <linearGradient id="a" x1="7" x2="7" y1="2" y2="20" gradientTransform="matrix(.26458 0 0 .26458 -.79272 -.2651)" gradientUnits="userSpaceOnUse">
   <stop stop-opacity=".08" offset="0"/>
   <stop stop-opacity=".02" offset="1"/>
  </linearGradient>
 </defs>
 <path d="m0-5.1677e-4v0.2651h4.2349c0.15088 0 0.26355 0.11319 0.26355 0.26407v4.2344c0 0.15088-0.11267 0.26355-0.26355 0.26355h-4.2349v0.26458c3.4925e-4 5e-7 6.8263e-4 0 0.001035 0h4.2333c0.29316 0 0.52917-0.23601 0.52917-0.52917v-4.2333c0-0.29316-0.23601-0.52917-0.52917-0.52917h-4.2333c-3.4925e-4 0-6.8263e-4 -6.7204e-7 -0.001035 0z" opacity=".35"/>
 <path d="m0 0.26458v4.762h4.2349c0.15088 0 0.26355-0.11267 0.26355-0.26355v-4.2344c0-0.15088-0.11267-0.26407-0.26355-0.26407z" fill="url(#a)"/>
 <path d="m0.26458 0.26458v0.26458l3.9703-1e-8c0.15088 0 0.26355 0.11319 0.26355 0.26407v-0.26458c0-0.15088-0.11267-0.26407-0.26355-0.26407z" opacity=".05"/>
 <path d="m4.7635 4.762c0 0.29281-0.23546 0.5286-0.52813 0.52917h-4.2344c-3.519e-4 0-6.9321e-4 -3e-7 -0.001035 0v0.26458c3.4925e-4 5e-7 6.8263e-4 0 0.001035 0h4.2333c0.29316 0 0.52917-0.23601 0.52917-0.52917z" fill="#fff" opacity=".01"/>
 <rect x="-4.1149e-8" y=".26458" width=".26458" height="4.7625" opacity=".35"/>
</svg>
