<?xml version="1.0" encoding="UTF-8"?>
<svg width="20" height="21" version="1.1" viewBox="0 0 5.2916 5.5562" xmlns="http://www.w3.org/2000/svg" xmlns:cc="http://creativecommons.org/ns#" xmlns:dc="http://purl.org/dc/elements/1.1/" xmlns:rdf="http://www.w3.org/1999/02/22-rdf-syntax-ns#">
 <metadata>
  <rdf:RDF>
   <cc:Work rdf:about="">
    <dc:format>image/svg+xml</dc:format>
    <dc:type rdf:resource="http://purl.org/dc/dcmitype/StillImage"/>
    <dc:title/>
   </cc:Work>
  </rdf:RDF>
 </metadata>
 <rect width="5.2916" height="5.5562" fill="#fff" opacity=".01"/>
 <path d="m0.5302-5.2734e-4c-0.29315 0-0.52916 0.23601-0.52916 0.52916v4.2333c0 0.29315 0.23601 0.52916 0.52916 0.52916h4.2333c0.29315 0 0.52916-0.23601 0.52916-0.52916v-4.2333c0-0.29315-0.23601-0.52916-0.52916-0.52916zm-0.001035 0.26511h4.2349c0.15087 0 0.26355 0.11318 0.26355 0.26406v4.2343c0 0.15088-0.11267 0.26355-0.26355 0.26355h-4.2349c-0.15087 0-0.26355-0.11267-0.26355-0.26355v-4.2343c0-0.15088 0.11267-0.26406 0.26355-0.26406z" opacity=".35" stroke-width=".26458"/>
 <path d="m0.52917 0.26458c-0.15087 0-0.26355 0.11318-0.26355 0.26406v0.26458c0-0.15088 0.11267-0.26406 0.26355-0.26406h4.2349c0.15087 0 0.26355 0.11318 0.26355 0.26406v-0.26458c0-0.15088-0.11267-0.26406-0.26355-0.26406z" opacity=".09" stroke-width=".26458"/>
 <path d="m0.0010386 4.7619v0.26458c0 0.29315 0.23601 0.52916 0.52916 0.52916h4.2333c0.29315 0 0.52916-0.23601 0.52916-0.52916v-0.26458c0 0.29281-0.23546 0.5286-0.52813 0.52916-1.792e-4 3e-7 -3.44e-4 0-5.292e-4 0-1.751e-4 3e-7 -3.44e-4 0-5.292e-4 0h-4.2333c-7.0113e-4 0-0.001368 2.6e-6 -0.002066 0-0.29218-0.0011377-0.5271-0.23671-0.5271-0.52916z" fill="#fff" opacity=".1" stroke-width=".26458"/>
</svg>
