<?xml version="1.0" encoding="UTF-8"?>
<svg width="5" height="3" version="1.1" viewBox="0 0 1.3229 .79375" xmlns="http://www.w3.org/2000/svg" xmlns:cc="http://creativecommons.org/ns#" xmlns:dc="http://purl.org/dc/elements/1.1/" xmlns:rdf="http://www.w3.org/1999/02/22-rdf-syntax-ns#">
 <metadata>
  <rdf:RDF>
   <cc:Work rdf:about="">
    <dc:format>image/svg+xml</dc:format>
    <dc:type rdf:resource="http://purl.org/dc/dcmitype/StillImage"/>
    <dc:title/>
   </cc:Work>
  </rdf:RDF>
 </metadata>
 <path transform="scale(.26458)" d="m2.0059 0c-0.54018 0-1.0565 0.2276-1.4219 0.61328-0.36534 0.38568-0.58008 0.92975-0.58008 1.5v0.88672h4.9961v-3h-2.9941z" fill="#fff" opacity=".01" stroke-width="3.8833"/>
 <path transform="scale(.26458)" d="m2.0039 0c-1.108 0-2 0.89199-2 2v1h0.99609v-0.99805c0-0.28565 0.10949-0.53722 0.28906-0.7168 0.17957-0.17957 0.43115-0.28906 0.7168-0.28906h2.9941v-0.99609h-2.9961z" opacity=".35" stroke-width="3.7795"/>
 <path transform="scale(.26458)" d="m2.0039 1c-0.012737 0-0.024448 0.0036455-0.037109 0.0039062-0.26837 0.010129-0.50697 0.11048-0.67773 0.28125-0.17957 0.17957-0.28906 0.43115-0.28906 0.7168v0.99805c5.154e-4 -0.28481 0.10991-0.53569 0.28906-0.71484 0.17957-0.17957 0.43115-0.28906 0.7168-0.28906h2.9941v-0.99609h-2.9961z" fill="#fff" opacity=".05" stroke-width="3.7795"/>
</svg>
