<?xml version="1.0" encoding="UTF-8"?>
<svg width="18" height="16" version="1.1" viewBox="0 0 4.7625 4.2333" xmlns="http://www.w3.org/2000/svg" xmlns:cc="http://creativecommons.org/ns#" xmlns:dc="http://purl.org/dc/elements/1.1/" xmlns:rdf="http://www.w3.org/1999/02/22-rdf-syntax-ns#">
 <metadata>
  <rdf:RDF>
   <cc:Work rdf:about="">
    <dc:format>image/svg+xml</dc:format>
    <dc:type rdf:resource="http://purl.org/dc/dcmitype/StillImage"/>
    <dc:title/>
   </cc:Work>
  </rdf:RDF>
 </metadata>
 <path d="m0.52916-0.79426c-0.001752 0-0.003419 4.9879e-4 -0.005168 5.1676e-4h3.7134c-0.00175-1.818e-5 -0.00342-5.1676e-4 -0.00517-5.1676e-4zm-0.52916 0.55345c-1.8547e-5 0.001926-5.1676e-4 0.003755-5.1676e-4 0.005684v3.9093c0 0.15088 0.057491 0.29502 0.15348 0.39636 0.096664 0.10205 0.23328 0.16226 0.3762 0.16226h3.7031c0.14292 0 0.2797-0.060932 0.37569-0.16226 0.095987-0.10133 0.15348-0.24548 0.15348-0.39636v-3.6742h-4.7614z" fill="#fff" opacity=".01" stroke-width="1.0275"/>
 <path d="m0.52865-0.79426c-0.00177 0-0.003402 4.9959e-4 -0.005168 5.1676e-4h3.7145c-0.00177-1.717e-5 -0.0034-5.1676e-4 -0.00517-5.1676e-4zm-0.52865 0.524c-1.7167e-5 0.001765-5.1676e-4 0.003397-5.1676e-4 0.005168v3.7041c0 0.29316 0.236 0.52916 0.52916 0.52916h3.7041c0.29316 0 0.52916-0.236 0.52916-0.52916v-3.439h-0.26407v3.4385c0 0.075577-0.02897 0.14162-0.07648 0.18913-0.047512 0.047512-0.11356 0.07648-0.18913 0.07648h-3.7031c-0.075577 0-0.14214-0.028968-0.18965-0.07648-0.047512-0.047512-0.076481-0.11356-0.076481-0.18913v-3.4385h-0.26303z" opacity=".35"/>
 <path d="m-5.1459e-4 3.439v0.26458c0 0.29316 0.236 0.52916 0.52916 0.52916h3.7041c0.29316 0 0.52916-0.236 0.52916-0.52916v-0.26458c0 0.29174-0.23384 0.52638-0.52503 0.52865-0.00167 2.85e-5 -0.00297 0.00103-0.00465 0.00103h-3.7031c-0.00167 0-0.00298-0.00101-0.00465-0.00103-0.29119-0.0022704-0.52503-0.23691-0.52503-0.52865z" opacity=".05"/>
</svg>
