<?xml version="1.0" encoding="UTF-8"?>
<svg width="20" height="21" version="1.1" viewBox="0 0 5.2916 5.5562" xmlns="http://www.w3.org/2000/svg" xmlns:cc="http://creativecommons.org/ns#" xmlns:dc="http://purl.org/dc/elements/1.1/" xmlns:rdf="http://www.w3.org/1999/02/22-rdf-syntax-ns#">
 <metadata>
  <rdf:RDF>
   <cc:Work rdf:about="">
    <dc:format>image/svg+xml</dc:format>
    <dc:type rdf:resource="http://purl.org/dc/dcmitype/StillImage"/>
    <dc:title/>
   </cc:Work>
  </rdf:RDF>
 </metadata>
 <defs>
  <linearGradient id="a" x1="7" x2="7" y1="2" y2="20" gradientTransform="matrix(.26458 0 0 .26458 -.26458 -.26511)" gradientUnits="userSpaceOnUse">
   <stop stop-opacity=".08" offset="0"/>
   <stop stop-opacity=".02" offset="1"/>
  </linearGradient>
 </defs>
 <path d="m0.52916-5.2734e-4c-0.29315 0-0.52916 0.23601-0.52916 0.52916v4.2333c0 0.29315 0.23601 0.52916 0.52916 0.52916h4.2333c0.29315 0 0.52916-0.23601 0.52916-0.52916v-4.2333c0-0.29315-0.23601-0.52916-0.52916-0.52916zm-0.0010345 0.26511h4.2349c0.15087 0 0.26355 0.11318 0.26355 0.26406v4.2343c0 0.15088-0.11267 0.26355-0.26355 0.26355h-4.2349c-0.15087 0-0.26355-0.11267-0.26355-0.26355v-4.2343c0-0.15088 0.11267-0.26406 0.26355-0.26406z" opacity=".35" stroke-width=".26458"/>
 <path d="m0.52814 0.26457c-0.15088 0-0.26355 0.11319-0.26355 0.26407v4.2344c0 0.15088 0.11267 0.26355 0.26355 0.26355h4.2349c0.15088 0 0.26355-0.11267 0.26355-0.26355v-4.2344c0-0.15088-0.11267-0.26407-0.26355-0.26407z" fill="url(#a)"/>
 <path d="m0.52813 0.26458c-0.15087 0-0.26355 0.11318-0.26355 0.26406v0.26458c0-0.15088 0.11267-0.26406 0.26355-0.26406h4.2349c0.15087 0 0.26355 0.11318 0.26355 0.26406v-0.26458c0-0.15088-0.11267-0.26406-0.26355-0.26406z" opacity=".1" stroke-width=".26458"/>
 <path d="m-8.2628e-7 4.7619v0.26458c0 0.29315 0.23601 0.52916 0.52916 0.52916h4.2333c0.29315 0 0.52916-0.23601 0.52916-0.52916v-0.26458c0 0.29281-0.23546 0.5286-0.52813 0.52916-1.791e-4 2e-7 -3.439e-4 0-5.291e-4 0-1.752e-4 2e-7 -3.44e-4 0-5.292e-4 0h-4.2333c-7.0114e-4 0-0.001368 2.6e-6 -0.002066 0-0.29218-0.0011377-0.5271-0.23671-0.5271-0.52916z" fill="#fff" opacity=".05" stroke-width=".26458"/>
 <path d="m0.52814 0.52916c-0.15088 0-0.26355 0.11319-0.26355 0.26407v0.26458c0-0.15088 0.11267-0.26407 0.26355-0.26407h4.2349c0.15088 0 0.26355 0.11319 0.26355 0.26407v-0.26458c0-0.15088-0.11267-0.26407-0.26355-0.26407z" opacity=".05"/>
 <path d="m0.52814 0.79379c-0.15088 0-0.26355 0.11319-0.26355 0.26407v0.26458c0-0.15088 0.11267-0.26407 0.26355-0.26407h4.2349c0.15088 0 0.26355 0.11319 0.26355 0.26407v-0.26458c0-0.15088-0.11267-0.26407-0.26355-0.26407z" opacity=".02"/>
</svg>
