<?xml version="1.0" encoding="UTF-8"?>
<svg version="1.1" viewBox="0 0 16 16" xmlns="http://www.w3.org/2000/svg" xmlns:cc="http://creativecommons.org/ns#" xmlns:dc="http://purl.org/dc/elements/1.1/" xmlns:rdf="http://www.w3.org/1999/02/22-rdf-syntax-ns#">
 <metadata>
  <rdf:RDF>
   <cc:Work rdf:about="">
    <dc:format>image/svg+xml</dc:format>
    <dc:type rdf:resource="http://purl.org/dc/dcmitype/StillImage"/>
    <dc:title/>
   </cc:Work>
  </rdf:RDF>
 </metadata>
 <defs>
  <linearGradient id="a" x1="14" x2="14" y1="1" y2="15" gradientUnits="userSpaceOnUse">
   <stop stop-color="#fff" stop-opacity=".02" offset="0"/>
   <stop stop-color="#fff" stop-opacity="0" offset=".69"/>
   <stop stop-opacity="0" offset=".7"/>
   <stop stop-opacity=".05" offset="1"/>
  </linearGradient>
 </defs>
 <circle cx="8" cy="8" r="7" fill="url(#a)"/>
 <path d="m8 1a7 7 0 0 0-7 7 7 7 0 0 0 7 7 7 7 0 0 0 7-7 7 7 0 0 0-7-7zm0 1a6 6 0 0 1 6 6 6 6 0 0 1-6 6 6 6 0 0 1-6-6 6 6 0 0 1 6-6z" fill-opacity=".92208" opacity=".35"/>
 <path d="M 8,2 A 7,7 0 0 0 7.4960938,2.0253906 6,6 0 0 0 2,8 6,6 0 0 0 2.0253906,8.4980469 6,6 0 0 1 8,3 6,6 0 0 1 13.974609,8.5019531 6,6 0 0 0 14,8 6,6 0 0 0 8.6269531,2.0332031 a 7,7 0 0 0 -0.027344,-0.00391 6,6 0 0 0 -0.011719,0 A 6,6 0 0 0 8,2 Z" fill="#fff" fill-opacity=".92208" opacity=".01"/>
 <path d="m1.0234 8.459a7 7 0 0 0-0.023438 0.54102 7 7 0 0 0 7 7 7 7 0 0 0 7-7 7 7 0 0 0-0.023438-0.45898 7 7 0 0 1-6.4727 6.4336 6 6 0 0 1-0.50391 0.025391 7 7 0 0 1-0.58789-0.0293 7 7 0 0 1-0.011719 0 6 6 0 0 1-0.027344-0.0039 7 7 0 0 1-6.3496-6.5078z" fill-opacity=".92208" opacity=".09"/>
 <ellipse cx="8" cy="8" rx="3" ry="3" opacity="0" stroke-width="1.2"/>
</svg>
