<?xml version="1.0" encoding="UTF-8"?>
<svg version="1.1" viewBox="0 0 18 18" xmlns="http://www.w3.org/2000/svg" xmlns:cc="http://creativecommons.org/ns#" xmlns:dc="http://purl.org/dc/elements/1.1/" xmlns:rdf="http://www.w3.org/1999/02/22-rdf-syntax-ns#">
 <metadata>
  <rdf:RDF>
   <cc:Work rdf:about="">
    <dc:format>image/svg+xml</dc:format>
    <dc:type rdf:resource="http://purl.org/dc/dcmitype/StillImage"/>
    <dc:title/>
   </cc:Work>
  </rdf:RDF>
 </metadata>
 <path d="m8 1a8 8 0 0 0-8 8 8 8 0 0 0 2.8652 6.1348 8 8 0 0 0 6.1348 2.8652 8 8 0 0 0 6.1348-2.8652 8 8 0 0 0 2.8652-6.1348 8 8 0 0 0-8-8 8 8 0 0 0-0.5 0.015625 8 8 0 0 1 7.5 7.9375c1.1e-4 0.015656 0.001953 0.031217 0.001953 0.046875 0 0.018913-0.001793 0.03773-0.001953 0.056641a8 8 0 0 1-0.021484 0.52148 8 8 0 0 1-0.021485 0.23438 8 8 0 0 1-0.027343 0.23633 8 8 0 0 1-0.035157 0.23633 8 8 0 0 1-0.041015 0.23438 8 8 0 0 1-0.048828 0.23242 8 8 0 0 1-0.052735 0.2207 8 8 0 0 1-0.001953 0.009766 8 8 0 0 1-0.035156 0.13281 8 8 0 0 1-0.027344 0.097657 8 8 0 0 1-0.015625 0.052734 8 8 0 0 1-0.054687 0.17383 8 8 0 0 1-0.076172 0.22656 8 8 0 0 1-0.082032 0.22266 8 8 0 0 1-0.089843 0.2207 8 8 0 0 1-0.095703 0.2168 8 8 0 0 1-0.10156 0.21484 8 8 0 0 1-0.34375 0.625 8 8 0 0 1-0.12695 0.20117 8 8 0 0 1-0.12695 0.18945 8 8 0 0 1-0.00586 0.007812 8 8 0 0 1-0.007812 0.011719 8 8 0 0 1-0.13086 0.18164 8 8 0 0 1-0.14453 0.18945 8 8 0 0 1-0.30469 0.36523 8 8 0 0 1-0.12891 0.14258 8 8 0 0 1-0.03125 0.033203 8 8 0 0 1-0.019531 0.019531 8 8 0 0 1-0.85742 0.78125 8 8 0 0 1-0.15234 0.11719 8 8 0 0 1-0.03711 0.027344 8 8 0 0 1-0.15625 0.11328 8 8 0 0 1-0.037109 0.025391 8 8 0 0 1-0.1582 0.10742 8 8 0 0 1-0.039063 0.02539 8 8 0 0 1-0.16211 0.10352 8 8 0 0 1-0.039063 0.023437 8 8 0 0 1-0.16406 0.097657 8 8 0 0 1-0.12891 0.070312 8 8 0 0 1-0.080079 0.044922 8 8 0 0 1-0.041015 0.021484 8 8 0 0 1-0.38477 0.19141 8 8 0 0 1-0.041015 0.019532 8 8 0 0 1-0.17578 0.078125 8 8 0 0 1-0.042968 0.017578 8 8 0 0 1-0.009766 0.003906 8 8 0 0 1-0.21094 0.083985 8 8 0 0 1-0.17773 0.068359 8 8 0 0 1-0.044922 0.015625 8 8 0 0 1-0.18164 0.060547 8 8 0 0 1-0.042969 0.013672 8 8 0 0 1-0.18359 0.05664 8 8 0 0 1-0.044922 0.013672 8 8 0 0 1-0.18359 0.050781 8 8 0 0 1-0.044922 0.011719 8 8 0 0 1-0.1875 0.044922 8 8 0 0 1-0.044922 0.009766 8 8 0 0 1-0.41992 0.082031 8 8 0 0 1-0.046875 0.007812 8 8 0 0 1-0.18945 0.029297 8 8 0 0 1-0.044922 0.00586 8 8 0 0 1-0.035156 0.003906 8 8 0 0 1-0.20117 0.023437 8 8 0 0 1-0.19141 0.017578 8 8 0 0 1-0.046875 0.003907 8 8 0 0 1-0.070312 0.003906 8 8 0 0 1-0.45312 0.015625c-0.015654 1.12e-4 -0.031217 0.001953-0.046875 0.001953-0.019565 0-0.039102-5.67e-4 -0.058594-0.001953a8 8 0 0 1-0.45312-0.015625 8 8 0 0 1-0.22461-0.017578 8 8 0 0 1-0.035156-0.003906 8 8 0 0 1-0.23633-0.027344 8 8 0 0 1-0.23438-0.033203 8 8 0 0 1-0.20117-0.033203 8 8 0 0 1-0.0097656-0.001953 8 8 0 0 1-0.11719-0.023438 8 8 0 0 1-0.14062-0.029297 8 8 0 0 1-0.23047-0.054687 8 8 0 0 1-0.19727-0.050782 8 8 0 0 1-0.033203-0.009765 8 8 0 0 1-0.45312-0.14258 8 8 0 0 1-0.22461-0.082032 8 8 0 0 1-0.18945-0.074218 8 8 0 0 1-0.03125-0.013672 8 8 0 0 1-0.1875-0.080078 8 8 0 0 1-0.029297-0.013672 8 8 0 0 1-0.18555-0.085938 8 8 0 0 1-0.03125-0.015625 8 8 0 0 1-0.41992-0.2207 8 8 0 0 1-0.20508-0.11914 8 8 0 0 1-0.17383-0.10742 8 8 0 0 1-0.029297-0.019532 8 8 0 0 1-0.16992-0.11133 8 8 0 0 1-0.027344-0.019531 8 8 0 0 1-0.35742-0.25977 8 8 0 0 1-0.019531-0.015625 8 8 0 0 1-0.16602-0.13281 8 8 0 0 1-0.027344-0.021485 8 8 0 0 1-0.072266-0.0625 8 8 0 0 1-0.10742-0.091796 8 8 0 0 1-0.17578-0.16016 8 8 0 0 1-0.14844-0.14062 8 8 0 0 1-0.023438-0.023437 8 8 0 0 1-0.14453-0.14453 8 8 0 0 1-0.023438-0.025391 8 8 0 0 1-0.31641-0.35547 8 8 0 0 1-0.15039-0.18359 8 8 0 0 1-0.125-0.16016 8 8 0 0 1-0.021484-0.027344 8 8 0 0 1-0.056641-0.080078 8 8 0 0 1-0.082031-0.11328 8 8 0 0 1-0.13281-0.19726 8 8 0 0 1-0.11133-0.16992 8 8 0 0 1-0.017578-0.029297 8 8 0 0 1-0.44922-0.83789 8 8 0 0 1-0.083984-0.18555 8 8 0 0 1-0.013672-0.033203 8 8 0 0 1-0.089844-0.21875 8 8 0 0 1-0.072266-0.18945 8 8 0 0 1-0.0097657-0.027344 8 8 0 0 1-0.0078124-0.02539 8 8 0 0 1-0.070313-0.20508 8 8 0 0 1-0.13477-0.45703 8 8 0 0 1-0.048828-0.19726 8 8 0 0 1-0.0019531-0.013672 8 8 0 0 1-0.017578-0.074219 8 8 0 0 1-0.037109-0.17969 8 8 0 0 1-0.13672-1.0508 8 8 0 0 0 0 0.015625 8 8 0 0 1-0.017578-0.47266c-1.1002e-4 -0.015656-0.0019531-0.031217-0.0019531-0.046875 0-0.018913 0.0017926-0.03773 0.0019531-0.056641a8 8 0 0 1 7.5-7.9277 8 8 0 0 0-0.5-0.015625z" opacity=".05"/>
 <circle cx="9" cy="9" r="8" fill="none"/>
 <path d="m9 1a8 8 0 0 0-8 8 8 8 0 0 0 8 8 8 8 0 0 0 8-8 8 8 0 0 0-8-8zm0 0.99805c1.8329 0 3.6551 0.75472 4.9512 2.0508s2.0508 3.1183 2.0508 4.9512-0.75472 3.6551-2.0508 4.9512-3.1183 2.0508-4.9512 2.0508-3.6551-0.75472-4.9512-2.0508-2.0508-3.1183-2.0508-4.9512 0.75472-3.6551 2.0508-4.9512 3.1183-2.0508 4.9512-2.0508z" opacity=".5"/>
 <path d="m9 2a8 8 0 0 0-0.68555 0.033203 8 8 0 0 0-0.00391 0c-1.593 0.16294-3.1286 0.88248-4.2617 2.0156-1.2961 1.2961-2.0508 3.1183-2.0508 4.9512 0 0.1671 0.013007 0.33347 0.025391 0.5 0.12345-1.6601 0.84748-3.2733 2.0254-4.4512 1.2961-1.2961 3.1183-2.0508 4.9512-2.0508s3.6551 0.75472 4.9512 2.0508c1.1779 1.1779 1.9019 2.791 2.0254 4.4512 0.01238-0.16653 0.02539-0.3329 0.02539-0.5 0-1.8329-0.75472-3.6551-2.0508-4.9512-1.1257-1.1257-2.6487-1.8406-4.2305-2.0098a8 8 0 0 0-0.035156-0.00586c-0.00453-4.608e-4 -0.00914 4.519e-4 -0.013672 0-0.18435-0.01838-0.36936-0.026044-0.55469-0.029296a8 8 0 0 0-0.11719-0.0039062z" fill="#fff" opacity=".05"/>
</svg>
