<?xml version="1.0" encoding="UTF-8"?>
<svg width="32" height="22" version="1.1" viewBox="0 0 8.4666 5.8209" xmlns="http://www.w3.org/2000/svg" xmlns:cc="http://creativecommons.org/ns#" xmlns:dc="http://purl.org/dc/elements/1.1/" xmlns:rdf="http://www.w3.org/1999/02/22-rdf-syntax-ns#">
 <defs>
  <linearGradient id="a" x1="7" x2="7" y1="2" y2="20" gradientTransform="matrix(.26458 0 0 .26458 0 1.3229)" gradientUnits="userSpaceOnUse">
   <stop stop-opacity=".08" offset="0"/>
   <stop stop-opacity=".02" offset="1"/>
  </linearGradient>
 </defs>
 <metadata>
  <rdf:RDF>
   <cc:Work rdf:about="">
    <dc:format>image/svg+xml</dc:format>
    <dc:type rdf:resource="http://purl.org/dc/dcmitype/StillImage"/>
    <dc:title/>
   </cc:Work>
  </rdf:RDF>
 </metadata>
 <g transform="translate(1.3234 -1.3229)">
  <path d="m0.79272 1.8526c-0.15088 0-0.26355 0.11319-0.26355 0.26407v4.2344c0 0.15088 0.11267 0.26355 0.26355 0.26355h4.2349c0.15088 0 0.26355-0.11267 0.26355-0.26355v-4.2344c0-0.15088-0.11267-0.26407-0.26355-0.26407z" opacity=".05"/>
  <path d="m0.79375 1.5875c-0.29316 0-0.52917 0.23601-0.52917 0.52917v4.2333c0 0.29316 0.23601 0.52917 0.52917 0.52917h4.2333c0.29316 0 0.52917-0.23601 0.52917-0.52917v-4.2333c0-0.29316-0.23601-0.52917-0.52917-0.52917zm-0.001035 0.2651h4.2349c0.15088 0 0.26355 0.11319 0.26355 0.26407v4.2344c0 0.15088-0.11267 0.26355-0.26355 0.26355h-4.2349c-0.15088 0-0.26355-0.11267-0.26355-0.26355v-4.2344c0-0.15088 0.11267-0.26407 0.26355-0.26407z" opacity=".35"/>
  <path d="m0.79272 1.8526c-0.15088 0-0.26355 0.11319-0.26355 0.26407v4.2344c0 0.15088 0.11267 0.26355 0.26355 0.26355h4.2349c0.15088 0 0.26355-0.11267 0.26355-0.26355v-4.2344c0-0.15088-0.11267-0.26407-0.26355-0.26407z" fill="url(#a)"/>
  <path d="m0.79272 1.8526c-0.15088 0-0.26355 0.11319-0.26355 0.26407v0.26458c0-0.15088 0.11267-0.26407 0.26355-0.26407h4.2349c0.15088 0 0.26355 0.11319 0.26355 0.26407v-0.26458c0-0.15088-0.11267-0.26407-0.26355-0.26407z" opacity=".05"/>
  <path d="m0.26458 6.35v0.26458c0 0.29316 0.23601 0.52917 0.52917 0.52917h4.2333c0.29316 0 0.52917-0.23601 0.52917-0.52917v-0.26458c0 0.29281-0.23546 0.5286-0.52813 0.52917-1.791e-4 2e-7 -3.439e-4 0-5.291e-4 0-1.752e-4 2e-7 -3.44e-4 0-5.292e-4 0h-4.2333c-7.0115e-4 0-0.001368 2.6e-6 -0.002066 0-0.29218-0.00112-0.5271-0.23671-0.5271-0.52917z" fill="#fff" opacity=".02"/>
 </g>
</svg>
