/* XPM */
static char * maximize_prelight_xpm[] = {
"20 24 51 1",
" 	c None",
".	c #939393",
"+	c #FFFFFF",
"@	c #DEDEDE s active_color_2",
"#	c #D8D8D8",
"$	c #BCBCBC",
"%	c #B2B2B2",
"&	c #B1B1B1",
"*	c #BDBDBD",
"=	c #D3D3D3",
"-	c #EAEAEA",
";	c #EBEBEB",
">	c #D4D4D4",
",	c #E2E2E2",
"'	c #888888",
")	c #878787",
"!	c #B0B0B0",
"~	c #E3E3E3",
"{	c #9E9E9E",
"]	c #C7C7C7",
"^	c #A6A6A6",
"/	c #A9A9A9",
"(	c #AEAEAE",
"_	c #CECECE",
":	c #B9B9B9",
"<	c #ACACAC",
"[	c #D6D6D6",
"}	c #EDEDED",
"|	c #C6C6C6",
"1	c #E8E8E8",
"2	c #E0E0E0",
"3	c #F2F2F2",
"4	c #D0D0D0",
"5	c #9F9F9F",
"6	c #B5B5B5",
"7	c #A7A7A7",
"8	c #9C9C9C",
"9	c #A1A1A1",
"0	c #B6B6B6",
"a	c #989898",
"b	c #B7B7B7",
"c	c #A5A5A5",
"d	c #DCDCDC",
"e	c #C3C3C3",
"f	c #DDDDDD",
"g	c #BFBFBF",
"h	c #F8F8F8",
"i	c #C8C8C8",
"j	c #BEBEBE",
"k	c #C1C1C1",
"l	c #E9E9E9",
"....................",
"++++++++++++++++++++",
"@@@@@@@@@@@@@@@@@@@@",
"@@@@@@@@@@@@@@@@@@@@",
"@@@@@@@@@@@@@@@@@@@@",
"@@@@@@@@@@@@@@@@@@@@",
"@@@#$%&&&&&&&&%$#@@@",
"@@@*=-;;;;;;;;->$@@@",
"@@@%,')))!@@@@@~%@@@",
"@@@&@{{{];@@@@@@&@@@",
"@@@&@^^^/>@@@@@@&@@@",
"@@@&@(_:<&@@@@@@&@@@",
"@@@&@[}}|1@@@@@@&@@@",
"@@@&@;@23,45[@6@&@@@",
"@@@&@@@@@@7890a@&@@@",
"@@@&@@@@@@;bc9/@&@@@",
"@@@&@@@@@@2_&&&@&@@@",
"@@@%d@@@@@e%:::f%@@@",
"@@2g]f@@@@;hhhhij2@@",
"@@22k%&&&&&&&&%k22@@",
"@@@,1;;;;;;;;;;l,@@@",
"@@@@@@@@@@@@@@@@@@@@",
"@@@@@@@@@@@@@@@@@@@@",
"@@@@@@@@@@@@@@@@@@@@"};
