/* XPM */
static char * maximize_toggled_prelight_xpm[] = {
"20 24 53 1",
" 	c None",
".	c #939393",
"+	c #FFFFFF",
"@	c #DEDEDE s active_color_2",
"#	c #D8D8D8",
"$	c #BCBCBC",
"%	c #B2B2B2",
"&	c #B1B1B1",
"*	c #BDBDBD",
"=	c #D3D3D3",
"-	c #EAEAEA",
";	c #EBEBEB",
">	c #D4D4D4",
",	c #E2E2E2",
"'	c #D1D1D1",
")	c #A0A0A0",
"!	c #D6D6D6",
"~	c #B4B4B4",
"{	c #E3E3E3",
"]	c #A7A7A7",
"^	c #9C9C9C",
"/	c #9E9E9E",
"(	c #989898",
"_	c #B7B7B7",
":	c #A6A6A6",
"<	c #A2A2A2",
"[	c #A9A9A9",
"}	c #E0E0E0",
"|	c #CFCFCF",
"1	c #C3C3C3",
"2	c #B9B9B9",
"3	c #F8F8F8",
"4	c #898989",
"5	c #B0B0B0",
"6	c #A1A1A1",
"7	c #C8C8C8",
"8	c #ECECEC",
"9	c #AFAFAF",
"0	c #D9D9D9",
"a	c #BEBEBE",
"b	c #AEAEAE",
"c	c #B3B3B3",
"d	c #DCDCDC",
"e	c #EDEDED",
"f	c #E6E6E6",
"g	c #DDDDDD",
"h	c #BFBFBF",
"i	c #C7C7C7",
"j	c #F2F2F2",
"k	c #E1E1E1",
"l	c #C1C1C1",
"m	c #E8E8E8",
"n	c #E9E9E9",
"....................",
"++++++++++++++++++++",
"@@@@@@@@@@@@@@@@@@@@",
"@@@@@@@@@@@@@@@@@@@@",
"@@@@@@@@@@@@@@@@@@@@",
"@@@@@@@@@@@@@@@@@@@@",
"@@@#$%&&&&&&&&%$#@@@",
"@@@*=-;;;;;;;;->$@@@",
"@@@%,')!@~@@@@@{%@@@",
"@@@&@]^/~(@@@@@@&@@@",
"@@@&@;_:<[@@@@@@&@@@",
"@@@&@}|&&&@@@@@@&@@@",
"@@@&@1&222@@@@@@&@@@",
"@@@&@;333344445@&@@@",
"@@@&@@@@@@66678@&@@@",
"@@@&@@@@@@[[[90@&@@@",
"@@@&@@@@@@&=abc@&@@@",
"@@@%d@@@@@#;e7fg%@@@",
"@@}hig@@@@;@}jk7a}@@",
"@@}}l%&&&&&&&&%l}}@@",
"@@@,m;;;;;;;;;;n,@@@",
"@@@@@@@@@@@@@@@@@@@@",
"@@@@@@@@@@@@@@@@@@@@",
"@@@@@@@@@@@@@@@@@@@@"};
