/* XPM */
static char * maximize_toggled_active_xpm[] = {
"20 24 39 1",
" 	c None",
".	c #939393",
"+	c #FFFFFF",
"@	c #DEDEDE s active_color_2",
"#	c #D0D0D0",
"$	c #A0A0A0",
"%	c #D6D6D6",
"&	c #B4B4B4",
"*	c #A7A7A7",
"=	c #9C9C9C",
"-	c #9E9E9E",
";	c #989898",
">	c #EBEBEB",
",	c #B7B7B7",
"'	c #A6A6A6",
")	c #A2A2A2",
"!	c #A9A9A9",
"~	c #E0E0E0",
"{	c #CFCFCF",
"]	c #B1B1B1",
"^	c #C3C3C3",
"/	c #B9B9B9",
"(	c #F8F8F8",
"_	c #898989",
":	c #B0B0B0",
"<	c #A1A1A1",
"[	c #C8C8C8",
"}	c #ECECEC",
"|	c #AFAFAF",
"1	c #D9D9D9",
"2	c #D3D3D3",
"3	c #BEBEBE",
"4	c #AEAEAE",
"5	c #B3B3B3",
"6	c #D8D8D8",
"7	c #EDEDED",
"8	c #E6E6E6",
"9	c #F2F2F2",
"0	c #E2E2E2",
"....................",
"++++++++++++++++++++",
"@@@@@@@@@@@@@@@@@@@@",
"@@@@@@@@@@@@@@@@@@@@",
"@@@@@@@@@@@@@@@@@@@@",
"@@@@@@@@@@@@@@@@@@@@",
"@@@@@@@@@@@@@@@@@@@@",
"@@@@@@@@@@@@@@@@@@@@",
"@@@@@#$%@&@@@@@@@@@@",
"@@@@@*=-&;@@@@@@@@@@",
"@@@@@>,')!@@@@@@@@@@",
"@@@@@~{]]]@@@@@@@@@@",
"@@@@@^]///@@@@@@@@@@",
"@@@@@>((((____:@@@@@",
"@@@@@@@@@@<<<[}@@@@@",
"@@@@@@@@@@!!!|1@@@@@",
"@@@@@@@@@@]2345@@@@@",
"@@@@@@@@@@6>7[8@@@@@",
"@@@@@@@@@@>@~90@@@@@",
"@@@@@@@@@@@@@@@@@@@@",
"@@@@@@@@@@@@@@@@@@@@",
"@@@@@@@@@@@@@@@@@@@@",
"@@@@@@@@@@@@@@@@@@@@",
"@@@@@@@@@@@@@@@@@@@@"};
