/* XPM */
static char * maximize_toggled_pressed_xpm[] = {
"20 24 37 1",
" 	c None",
".	c #939393",
"+	c #FFFFFF",
"@	c #DEDEDE s active_color_2",
"#	c #C3CDD7",
"$	c #5F8EC2",
"%	c #CDD3DA",
"&	c #89A9CB",
"*	c #61A0E4",
"=	c #368AE6",
"-	c #5097E4",
";	c #81AFE2",
">	c #E3EAF0",
",	c #63B1EA",
"'	c #44A3E8",
")	c #E0E0E0",
"!	c #9DD6EE",
"~	c #52BDEB",
"{	c #ABD7E4",
"]	c #7AD1EC",
"^	c #EBEBEB",
"/	c #F8F8F8",
"(	c #2F70B9",
"_	c #80A3CA",
":	c #8DBBEE",
"<	c #ECECEC",
"[	c #62B0E8",
"}	c #D1D8DE",
"|	c #A1D8F1",
"1	c #71C7ED",
"2	c #77C6E7",
"3	c #B7E3F1",
"4	c #E9F0F2",
"5	c #97DAEE",
"6	c #DCEBF0",
"7	c #F2F2F2",
"8	c #E2E2E2",
"....................",
"++++++++++++++++++++",
"@@@@@@@@@@@@@@@@@@@@",
"@@@@@@@@@@@@@@@@@@@@",
"@@@@@@@@@@@@@@@@@@@@",
"@@@@@@@@@@@@@@@@@@@@",
"@@@@@@@@@@@@@@@@@@@@",
"@@@@@@@@@@@@@@@@@@@@",
"@@@@@#$%@&@@@@@@@@@@",
"@@@@@*=-;=@@@@@@@@@@",
"@@@@@>,'''@@@@@@@@@@",
"@@@@@)!~~~@@@@@@@@@@",
"@@@@@{]]]]@@@@@@@@@@",
"@@@@@^////((((_@@@@@",
"@@@@@@@@@@===:<@@@@@",
"@@@@@@@@@@'''[}@@@@@",
"@@@@@@@@@@~|1~2@@@@@",
"@@@@@@@@@@3^456@@@@@",
"@@@@@@@@@@^@)78@@@@@",
"@@@@@@@@@@@@@@@@@@@@",
"@@@@@@@@@@@@@@@@@@@@",
"@@@@@@@@@@@@@@@@@@@@",
"@@@@@@@@@@@@@@@@@@@@",
"@@@@@@@@@@@@@@@@@@@@"};
