/* XPM */
static char * maximize_pressed_xpm[] = {
"20 24 40 1",
" 	c None",
".	c #939393",
"+	c #FFFFFF",
"@	c #DEDEDE s active_color_2",
"#	c #2F72BC",
"$	c #83A5CC",
"%	c #378BE6",
"&	c #8DBCEE",
"*	c #EBEBEB",
"=	c #44A3E8",
"-	c #58ABE9",
";	c #CBD6DF",
">	c #51BBEB",
",	c #99D4F1",
"'	c #69C3EC",
")	c #74C4E8",
"!	c #B2E2F1",
"~	c #EDEDED",
"{	c #E6F0F3",
"]	c #92D8EE",
"^	c #DDECF1",
"/	c #E0E0E0",
"(	c #F2F2F2",
"_	c #E2E2E2",
":	c #C2CDD9",
"<	c #5F8FC6",
"[	c #CED4DA",
"}	c #8CACCF",
"|	c #63A1E4",
"1	c #388CE6",
"2	c #569CE5",
"3	c #89B3E2",
"4	c #E1EAF0",
"5	c #66B4EB",
"6	c #45A5E9",
"7	c #9DD6EE",
"8	c #53BEEB",
"9	c #ABD6E5",
"0	c #7BD1EC",
"a	c #F8F8F8",
"....................",
"++++++++++++++++++++",
"@@@@@@@@@@@@@@@@@@@@",
"@@@@@@@@@@@@@@@@@@@@",
"@@@@@@@@@@@@@@@@@@@@",
"@@@@@@@@@@@@@@@@@@@@",
"@@@@@@@@@@@@@@@@@@@@",
"@@@@@@@@@@@@@@@@@@@@",
"@@@@@####$@@@@@@@@@@",
"@@@@@%%%&*@@@@@@@@@@",
"@@@@@===-;@@@@@@@@@@",
"@@@@@>,'>)@@@@@@@@@@",
"@@@@@!~{]^@@@@@@@@@@",
"@@@@@*@/(_:<[@}@@@@@",
"@@@@@@@@@@|1231@@@@@",
"@@@@@@@@@@45666@@@@@",
"@@@@@@@@@@/7888@@@@@",
"@@@@@@@@@@90000@@@@@",
"@@@@@@@@@@*aaaa@@@@@",
"@@@@@@@@@@@@@@@@@@@@",
"@@@@@@@@@@@@@@@@@@@@",
"@@@@@@@@@@@@@@@@@@@@",
"@@@@@@@@@@@@@@@@@@@@",
"@@@@@@@@@@@@@@@@@@@@"};
