/* XPM */
static char * maximize_inactive_xpm[] = {
"20 24 34 1",
" 	c None",
".	c #939393",
"+	c #FFFFFF",
"@	c #DEDEDE s active_color_2",
"#	c #B2B2B2",
"$	c #C7C7C7",
"%	c #BEBEBE",
"&	c #D2D2D2",
"*	c #E4E4E4",
"=	c #C2C2C2",
"-	c #C3C3C3",
";	c #D8D8D8",
">	c #C6C6C6",
",	c #D6D6D6",
"'	c #CBCBCB",
")	c #C5C5C5",
"!	c #DADADA",
"~	c #E5E5E5",
"{	c #E2E2E2",
"]	c #DFDFDF",
"^	c #E8E8E8",
"/	c #E0E0E0",
"(	c #D7D7D7",
"_	c #D9D9D9",
":	c #CACACA",
"<	c #BDBDBD",
"[	c #BFBFBF",
"}	c #BBBBBB",
"|	c #C1C1C1",
"1	c #D5D5D5",
"2	c #D1D1D1",
"3	c #C8C8C8",
"4	c #CCCCCC",
"5	c #EBEBEB",
"....................",
"++++++++++++++++++++",
"@@@@@@@@@@@@@@@@@@@@",
"@@@@@@@@@@@@@@@@@@@@",
"@@@@@@@@@@@@@@@@@@@@",
"@@@@@@@@@@@@@@@@@@@@",
"@@@@@@@@@@@@@@@@@@@@",
"@@@@@@@@@@@@@@@@@@@@",
"@@@@@####$@@@@@@@@@@",
"@@@@@%%%&*@@@@@@@@@@",
"@@@@@===-;@@@@@@@@@@",
"@@@@@>,')$@@@@@@@@@@",
"@@@@@!~~&{@@@@@@@@@@",
"@@@@@*@]^/(%_@:@@@@@",
"@@@@@@@@@@-<[:}@@@@@",
"@@@@@@@@@@~:|[-@@@@@",
"@@@@@@@@@@]1$$$@@@@@",
"@@@@@@@@@@23444@@@@@",
"@@@@@@@@@@*5555@@@@@",
"@@@@@@@@@@@@@@@@@@@@",
"@@@@@@@@@@@@@@@@@@@@",
"@@@@@@@@@@@@@@@@@@@@",
"@@@@@@@@@@@@@@@@@@@@",
"@@@@@@@@@@@@@@@@@@@@"};
