/* XPM */
static char * maximize_active_xpm[] = {
"20 24 37 1",
" 	c None",
".	c #939393",
"+	c #FFFFFF",
"@	c #DEDEDE s active_color_2",
"#	c #878787",
"$	c #B0B0B0",
"%	c #9E9E9E",
"&	c #C7C7C7",
"*	c #EBEBEB",
"=	c #A6A6A6",
"-	c #A9A9A9",
";	c #D4D4D4",
">	c #AEAEAE",
",	c #CECECE",
"'	c #B9B9B9",
")	c #ACACAC",
"!	c #B1B1B1",
"~	c #D6D6D6",
"{	c #EDEDED",
"]	c #C6C6C6",
"^	c #E8E8E8",
"/	c #E0E0E0",
"(	c #F2F2F2",
"_	c #E2E2E2",
":	c #D0D0D0",
"<	c #9F9F9F",
"[	c #B5B5B5",
"}	c #A7A7A7",
"|	c #9C9C9C",
"1	c #A1A1A1",
"2	c #B6B6B6",
"3	c #989898",
"4	c #B7B7B7",
"5	c #A5A5A5",
"6	c #C3C3C3",
"7	c #B2B2B2",
"8	c #F8F8F8",
"....................",
"++++++++++++++++++++",
"@@@@@@@@@@@@@@@@@@@@",
"@@@@@@@@@@@@@@@@@@@@",
"@@@@@@@@@@@@@@@@@@@@",
"@@@@@@@@@@@@@@@@@@@@",
"@@@@@@@@@@@@@@@@@@@@",
"@@@@@@@@@@@@@@@@@@@@",
"@@@@@####$@@@@@@@@@@",
"@@@@@%%%&*@@@@@@@@@@",
"@@@@@===-;@@@@@@@@@@",
"@@@@@>,')!@@@@@@@@@@",
"@@@@@~{{]^@@@@@@@@@@",
"@@@@@*@/(_:<~@[@@@@@",
"@@@@@@@@@@}|123@@@@@",
"@@@@@@@@@@*451-@@@@@",
"@@@@@@@@@@/,!!!@@@@@",
"@@@@@@@@@@67'''@@@@@",
"@@@@@@@@@@*8888@@@@@",
"@@@@@@@@@@@@@@@@@@@@",
"@@@@@@@@@@@@@@@@@@@@",
"@@@@@@@@@@@@@@@@@@@@",
"@@@@@@@@@@@@@@@@@@@@",
"@@@@@@@@@@@@@@@@@@@@"};
