/* XPM */
static char * maximize_toggled_inactive_xpm[] = {
"20 24 34 1",
" 	c None",
".	c #939393",
"+	c #FFFFFF",
"@	c #DEDEDE s active_color_2",
"#	c #D7D7D7",
"$	c #BEBEBE",
"%	c #D9D9D9",
"&	c #C9C9C9",
"*	c #C2C2C2",
"=	c #BDBDBD",
"-	c #BBBBBB",
";	c #E5E5E5",
">	c #CACACA",
",	c #C0C0C0",
"'	c #C3C3C3",
")	c #DFDFDF",
"!	c #C7C7C7",
"~	c #D0D0D0",
"{	c #CBCBCB",
"]	c #E4E4E4",
"^	c #EBEBEB",
"/	c #B3B3B3",
"(	c #BFBFBF",
"_	c #D2D2D2",
":	c #C6C6C6",
"<	c #DBDBDB",
"[	c #D8D8D8",
"}	c #CECECE",
"|	c #C8C8C8",
"1	c #E6E6E6",
"2	c #D3D3D3",
"3	c #E2E2E2",
"4	c #E8E8E8",
"5	c #E0E0E0",
"....................",
"++++++++++++++++++++",
"@@@@@@@@@@@@@@@@@@@@",
"@@@@@@@@@@@@@@@@@@@@",
"@@@@@@@@@@@@@@@@@@@@",
"@@@@@@@@@@@@@@@@@@@@",
"@@@@@@@@@@@@@@@@@@@@",
"@@@@@@@@@@@@@@@@@@@@",
"@@@@@#$%@&@@@@@@@@@@",
"@@@@@*=$&-@@@@@@@@@@",
"@@@@@;>*,'@@@@@@@@@@",
"@@@@@)#!!!@@@@@@@@@@",
"@@@@@~!{{{@@@@@@@@@@",
"@@@@@]^^^^////!@@@@@",
"@@@@@@@@@@(((_;@@@@@",
"@@@@@@@@@@''':<@@@@@",
"@@@@@@@@@@![}:|@@@@@",
"@@@@@@@@@@<]123@@@@@",
"@@@@@@@@@@]@)45@@@@@",
"@@@@@@@@@@@@@@@@@@@@",
"@@@@@@@@@@@@@@@@@@@@",
"@@@@@@@@@@@@@@@@@@@@",
"@@@@@@@@@@@@@@@@@@@@",
"@@@@@@@@@@@@@@@@@@@@"};
