<?xml version="1.0" encoding="UTF-8"?>
<svg version="1.1" viewBox="0 0 16 16" xmlns="http://www.w3.org/2000/svg" xmlns:cc="http://creativecommons.org/ns#" xmlns:dc="http://purl.org/dc/elements/1.1/" xmlns:rdf="http://www.w3.org/1999/02/22-rdf-syntax-ns#">
 <defs>
  <linearGradient id="a" x1="14" x2="14" y1="1" y2="15" gradientUnits="userSpaceOnUse">
   <stop stop-color="#fcffff" stop-opacity=".1" offset="0"/>
   <stop stop-color="#fff" stop-opacity="0" offset=".5746"/>
   <stop stop-opacity="0" offset=".63901"/>
   <stop stop-opacity=".05" offset="1"/>
  </linearGradient>
 </defs>
 <metadata>
  <rdf:RDF>
   <cc:Work rdf:about="">
    <dc:format>image/svg+xml</dc:format>
    <dc:type rdf:resource="http://purl.org/dc/dcmitype/StillImage"/>
    <dc:title/>
   </cc:Work>
  </rdf:RDF>
 </metadata>
 <circle cx="8" cy="8" r="7" fill="#767676"/>
 <circle cx="8" cy="8" r="7" fill="url(#a)"/>
 <path d="m8 1a7 7 0 0 0-7 7 7 7 0 0 0 7 7 7 7 0 0 0 7-7 7 7 0 0 0-7-7zm0 1a6 6 0 0 1 6 6 6 6 0 0 1-6 6 6 6 0 0 1-6-6 6 6 0 0 1 6-6z" fill-opacity=".92208" opacity=".5"/>
 <path d="m8 2a7 7 0 0 0-0.50391 0.025391 6 6 0 0 0-5.4961 5.9746 6 6 0 0 0 0.025391 0.49805 6 6 0 0 1 5.9746-5.498 6 6 0 0 1 5.9746 5.502 6 6 0 0 0 0.025391-0.50195 6 6 0 0 0-5.373-5.9668 7 7 0 0 0-0.027344-0.00391 6 6 0 0 0-0.011719 0 6 6 0 0 0-0.58789-0.029293z" fill="#fff" fill-opacity=".92208" opacity=".1"/>
 <path d="m1.0234 8.459a7 7 0 0 0-0.023438 0.54102 7 7 0 0 0 7 7 7 7 0 0 0 7-7 7 7 0 0 0-0.023438-0.45898 7 7 0 0 1-6.4727 6.4336 6 6 0 0 1-0.50391 0.025391 7 7 0 0 1-0.58789-0.0293 7 7 0 0 1-0.011719 0 6 6 0 0 1-0.027344-0.0039 7 7 0 0 1-6.3496-6.5078z" fill-opacity=".92208" opacity=".09"/>
 <ellipse cx="8" cy="7" rx="3" ry="3" opacity=".3"/>
 <ellipse cx="8" cy="8" rx="3" ry="3" fill="#fff"/>
</svg>
